<svg width="57" height="54" viewBox="0 0 57 54" fill="none" xmlns="http://www.w3.org/2000/svg">
<rect x="8.01123" y="8.29089" width="41" height="2" transform="rotate(0.584662 8.01123 8.29089)" fill="#F6F6F6"/>
<rect x="7.99121" y="11.6979" width="41" height="2" transform="rotate(-0.553191 7.99121 11.6979)" fill="#F6F6F6"/>
<path d="M25.5502 20.1356C25.7099 20.1261 25.8246 20.1673 25.8942 20.2593C25.9638 20.3513 25.9815 20.4678 25.9472 20.6087L23.3487 31.8241C23.2875 32.0521 23.1345 32.1735 22.8896 32.1881L21.1647 32.2914C20.8985 32.3073 20.7268 32.2054 20.6495 31.9856L18.2193 25.1266C18.1923 25.032 18.1575 24.986 18.1149 24.9886C18.0823 24.9798 18.0539 25.0403 18.0296 25.17L16.4171 32.239C16.3666 32.4664 16.2135 32.5877 15.958 32.603L14.1852 32.7092C13.9296 32.7245 13.7579 32.6225 13.67 32.4034L9.75216 21.5782C9.71193 21.4416 9.72089 21.3236 9.77904 21.2239C9.83719 21.1243 9.94612 21.0697 10.1058 21.0601L12.1023 20.9406C12.2407 20.9323 12.3381 20.9532 12.3945 21.0032C12.461 21.042 12.5074 21.1033 12.5338 21.1873L15.0291 28.3309C15.068 28.4461 15.1035 28.5028 15.1354 28.5009C15.1674 28.499 15.1968 28.4545 15.2236 28.3674L16.8461 20.9291C16.8622 20.8427 16.8957 20.7766 16.9464 20.7308C17.0071 20.6737 17.1066 20.641 17.2451 20.6328L18.954 20.5305C19.0924 20.5222 19.1898 20.5431 19.2463 20.5931C19.3127 20.6319 19.3644 20.6929 19.4015 20.7762L21.9354 28.0297C21.9612 28.103 21.9957 28.1437 22.0389 28.1518C22.0815 28.1492 22.1059 28.1103 22.1121 28.0352L23.6978 20.519C23.714 20.4325 23.7527 20.3661 23.8141 20.3197C23.8748 20.2626 23.9743 20.23 24.1128 20.2217L25.5502 20.1356Z" fill="white"/>
<path d="M34.916 32.1C35.0227 32.2493 35.0653 32.356 35.044 32.42C35.0333 32.4733 34.964 32.5 34.836 32.5H33.428C33.236 32.5 33.1027 32.4413 33.028 32.324L30.964 29.46C30.9 29.364 30.8467 29.316 30.804 29.316C30.772 29.316 30.7187 29.364 30.644 29.46L28.5 32.324C28.4253 32.4413 28.2973 32.5 28.116 32.5H27.188C27.06 32.5 26.9693 32.468 26.916 32.404C26.8733 32.3293 26.916 32.2067 27.044 32.036L29.876 28.436C29.9293 28.3507 29.9507 28.2813 29.94 28.228C29.94 28.1747 29.9133 28.1107 29.86 28.036L27.14 24.34C27.0867 24.2653 27.076 24.196 27.108 24.132C27.14 24.0573 27.2093 24.02 27.316 24.02H28.644C28.7507 24.02 28.8307 24.036 28.884 24.068C28.9373 24.0893 28.9853 24.132 29.028 24.196L30.98 26.868C31.0653 26.996 31.1453 26.996 31.22 26.868L33.108 24.196C33.1507 24.132 33.1987 24.0893 33.252 24.068C33.3053 24.036 33.3853 24.02 33.492 24.02H34.516C34.6227 24.02 34.6813 24.0467 34.692 24.1C34.7027 24.1533 34.6867 24.2173 34.644 24.292L32.036 27.78C31.972 27.8547 31.94 27.924 31.94 27.988C31.9507 28.0413 31.9827 28.1053 32.036 28.18L34.916 32.1Z" fill="white"/>
<path d="M40.2839 27.174C40.1561 27.1669 40.089 27.222 40.0825 27.3391L39.8202 32.0679C39.8084 32.2809 39.68 32.3806 39.435 32.367L37.7416 32.2731C37.6245 32.2666 37.5458 32.2408 37.5056 32.1959C37.4659 32.1403 37.4487 32.0645 37.4541 31.9687L38.0805 20.674C38.0905 20.493 38.1754 20.4069 38.3352 20.4158L40.2363 20.5212C40.3854 20.5295 40.4552 20.6188 40.4457 20.7892L40.2074 25.0866C40.198 25.257 40.2678 25.3463 40.4169 25.3546L44.6344 25.5885C44.7835 25.5968 44.8625 25.5211 44.8713 25.3613L45.1106 21.0479C45.12 20.8775 45.1993 20.7965 45.3484 20.8047L47.2495 20.9102C47.4092 20.919 47.4841 21.014 47.4741 21.195L46.8476 32.4897C46.8423 32.5855 46.8169 32.6589 46.7713 32.7098C46.7264 32.75 46.6453 32.7669 46.5281 32.7604L44.8347 32.6665C44.5898 32.6529 44.4732 32.5396 44.485 32.3266L44.7473 27.5979C44.7538 27.4807 44.6931 27.4186 44.5653 27.4115L40.2839 27.174Z" fill="white"/>
<rect x="7.99097" y="39.7076" width="41" height="2" transform="rotate(-0.58 7.99097 39.7076)" fill="#F6F6F6"/>
<rect x="8.01123" y="42.2925" width="41" height="2" transform="rotate(0.58 8.01123 42.2925)" fill="#F6F6F6"/>
</svg>
