<svg width="36" height="35" viewBox="0 0 36 35" fill="none" xmlns="http://www.w3.org/2000/svg">
<path d="M5.71795 30.8424L3.91293 29.2573L2.32781 31.0623L4.13283 32.6475L5.71795 30.8424ZM17.7112 17.1853L19.5163 18.7705L21.1464 16.9142L19.2452 15.3367L17.7112 17.1853ZM5.80476 30.9187L4.21964 32.7237L6.02466 34.3088L7.60978 32.5038L5.80476 30.9187ZM17.8002 17.2592L19.3342 15.4105L17.5365 13.9188L15.9952 15.674L17.8002 17.2592ZM18.0047 17.4288L19.5496 15.5893L19.5442 15.5847L19.5387 15.5802L18.0047 17.4288ZM18.005 17.4291L19.5543 15.5932L19.55 15.5896L18.005 17.4291ZM31.9866 29.2279L30.4374 31.0638L32.2733 32.6131L33.8225 30.7772L31.9866 29.2279ZM32.0522 29.1502L33.8881 30.6994L35.4374 28.8635L33.6015 27.3143L32.0522 29.1502ZM18.0703 17.3511L19.6196 15.5152L19.6129 15.5096L19.6063 15.5041L18.0703 17.3511ZM18.07 17.3508L19.6059 15.5038L19.604 15.5021L18.07 17.3508ZM17.8673 17.1827L16.0623 15.5975L14.4322 17.4538L16.3333 19.0313L17.8673 17.1827ZM29.3153 4.14657L31.1203 5.73169L32.7054 3.92667L30.9004 2.34155L29.3153 4.14657ZM29.2285 4.07034L30.8136 2.26532L29.0086 0.68021L27.4235 2.48522L29.2285 4.07034ZM17.7784 17.1089L16.2444 18.9575L18.0421 20.4492L19.5834 18.694L17.7784 17.1089ZM4.09564 5.75507L5.62964 3.90641L3.78097 2.37241L2.24698 4.22107L4.09564 5.75507ZM4.03066 5.83337L2.182 4.29938L0.648002 6.14804L2.49667 7.68204L4.03066 5.83337ZM7.52297 32.4276L19.5163 18.7705L15.9062 15.6002L3.91293 29.2573L7.52297 32.4276ZM7.38988 29.1136L7.30307 29.0374L4.13283 32.6475L4.21964 32.7237L7.38988 29.1136ZM15.9952 15.674L3.99974 29.3336L7.60978 32.5038L19.6052 18.8443L15.9952 15.674ZM19.5387 15.5802L19.3342 15.4105L16.2662 19.1078L16.4707 19.2775L19.5387 15.5802ZM19.55 15.5896L19.5496 15.5893L16.4597 19.2684L16.4601 19.2686L19.55 15.5896ZM33.5359 27.392L19.5543 15.5932L16.4557 19.265L30.4374 31.0638L33.5359 27.392ZM30.2163 27.6009L30.1507 27.6787L33.8225 30.7772L33.8881 30.6994L30.2163 27.6009ZM16.521 19.187L30.503 30.9861L33.6015 27.3143L19.6196 15.5152L16.521 19.187ZM16.534 19.1978L16.5343 19.1981L19.6063 15.5041L19.6059 15.5038L16.534 19.1978ZM16.3333 19.0313L16.536 19.1995L19.604 15.5021L19.4013 15.334L16.3333 19.0313ZM27.5103 2.56145L16.0623 15.5975L19.6724 18.7678L31.1203 5.73169L27.5103 2.56145ZM27.6434 5.87537L27.7302 5.9516L30.9004 2.34155L30.8136 2.26532L27.6434 5.87537ZM19.5834 18.694L31.0335 5.65546L27.4235 2.48522L15.9734 15.5237L19.5834 18.694ZM2.56164 7.60373L16.2444 18.9575L19.3124 15.2602L5.62964 3.90641L2.56164 7.60373ZM5.87933 7.36737L5.9443 7.28907L2.24698 4.22107L2.182 4.29938L5.87933 7.36737ZM19.2452 15.3367L5.56466 3.98471L2.49667 7.68204L16.1772 19.034L19.2452 15.3367Z" fill="#F21326"/>
</svg>
